<?xml version="1.0" standalone="no"?>
<!DOCTYPE svg PUBLIC "-//W3C//DTD SVG 20010904//EN"
 "http://www.w3.org/TR/2001/REC-SVG-20010904/DTD/svg10.dtd">
<svg version="1.0" xmlns="http://www.w3.org/2000/svg"
 width="1024.000000pt" height="1024.000000pt" viewBox="0 0 1024.000000 1024.000000"
 preserveAspectRatio="xMidYMid meet">

<g transform="translate(0.000000,1024.000000) scale(0.100000,-0.100000)"
fill="#000000" stroke="none">
<path d="M4815 7144 c-951 -145 -1675 -932 -1734 -1886 -33 -523 121 -1020
440 -1418 122 -153 310 -325 470 -430 283 -186 594 -295 938 -330 532 -53
1092 120 1500 463 237 199 400 406 530 670 322 654 269 1448 -135 2044 -330
487 -831 804 -1405 887 -134 20 -476 20 -604 0z m506 -84 c460 -47 886 -258
1214 -601 296 -310 479 -705 526 -1141 18 -163 6 -437 -25 -586 -138 -649
-580 -1180 -1190 -1425 -142 -57 -302 -100 -447 -122 -140 -20 -418 -20 -558
0 -457 67 -887 302 -1188 650 -268 310 -428 675 -472 1077 -90 817 348 1602
1093 1963 323 157 688 221 1047 185z"/>
<path d="M4935 6859 c-106 -13 -292 -55 -380 -86 -114 -40 -323 -148 -425
-220 -182 -129 -399 -369 -507 -560 l-32 -59 322 -241 322 -242 3 295 c1 162
6 294 10 294 4 0 203 -147 442 -325 239 -179 441 -324 448 -323 22 5 1251 912
1252 925 0 18 -186 178 -295 252 -276 189 -581 287 -920 296 -88 2 -196 -1
-240 -6z"/>
<path d="M5820 5680 c-371 -275 -679 -500 -683 -500 -5 0 -168 119 -363 265
-195 146 -357 265 -359 265 -3 0 -5 -88 -5 -195 l0 -195 359 -269 359 -270
426 329 c234 182 428 330 431 330 3 0 4 -255 3 -567 l-3 -568 -32 -67 c-42
-89 -85 -141 -154 -187 -86 -57 -162 -74 -307 -69 -114 4 -124 6 -195 41 -130
64 -217 184 -237 324 -5 37 -7 70 -4 75 3 4 41 8 85 8 l79 0 0 -33 c0 -102 84
-212 184 -241 69 -20 168 -20 236 0 67 20 150 99 168 160 8 29 12 150 12 413
0 204 -2 371 -5 371 -2 0 -153 -115 -335 -255 -181 -141 -336 -258 -343 -261
-7 -2 -172 115 -367 261 l-355 266 -3 -521 -2 -521 -83 3 -82 3 -5 585 -5 584
-315 238 c-173 131 -334 251 -356 268 l-42 30 -30 -93 c-141 -427 -106 -911
95 -1312 255 -508 720 -846 1288 -936 104 -17 398 -17 500 0 271 43 495 131
716 280 247 166 434 377 569 641 282 554 248 1206 -89 1728 -33 50 -64 92 -68
91 -4 0 -312 -225 -683 -499z"/>
</g>
</svg>
