<?xml version="1.0" standalone="no"?>
<!DOCTYPE svg PUBLIC "-//W3C//DTD SVG 20010904//EN"
 "http://www.w3.org/TR/2001/REC-SVG-20010904/DTD/svg10.dtd">
<svg version="1.0" xmlns="http://www.w3.org/2000/svg"
 width="475.000000pt" height="476.000000pt" viewBox="0 0 475.000000 476.000000"
 preserveAspectRatio="xMidYMid meet">

<g transform="translate(0.000000,476.000000) scale(0.100000,-0.100000)"
fill="#000000" stroke="none">
<path d="M0 2380 l0 -2380 2375 0 2375 0 0 2380 0 2380 -2375 0 -2375 0 0
-2380z m2438 1011 c67 -34 105 -97 105 -176 1 -124 -115 -220 -235 -193 -113
25 -176 125 -154 243 8 42 67 112 111 131 45 20 130 17 173 -5z m-437 -182
c49 -25 83 -67 99 -124 24 -87 -19 -184 -103 -226 -163 -84 -345 90 -268 256
50 108 165 148 272 94z m888 -7 c79 -48 114 -158 77 -245 -31 -75 -135 -134
-209 -120 -102 19 -167 96 -167 195 0 83 33 143 95 176 72 37 134 35 204 -6z
m-362 -291 c62 -30 117 -87 129 -137 5 -21 11 -22 157 -26 167 -4 187 -10 244
-70 57 -59 63 -93 63 -362 0 -244 -4 -272 -36 -259 -11 4 -14 51 -14 247 -1
301 -10 334 -105 377 -32 15 -65 19 -162 19 l-122 0 -3 -212 c-3 -237 -10
-263 -70 -294 -44 -23 -121 -14 -153 16 -38 36 -48 89 -43 240 3 114 7 141 26
177 26 50 78 94 129 109 20 6 39 16 41 22 7 21 -77 100 -125 116 -61 21 -216
21 -274 1 -48 -17 -93 -55 -115 -98 -12 -22 -12 -28 -2 -31 7 -3 29 -9 49 -15
43 -14 102 -73 124 -123 21 -52 22 -316 0 -358 -25 -48 -62 -70 -116 -70 -42
0 -55 5 -87 34 l-37 34 -5 224 -5 223 -136 0 c-130 0 -137 -1 -176 -27 -69
-46 -73 -63 -73 -340 0 -133 -4 -249 -9 -256 -5 -8 -17 -12 -27 -10 -18 3 -19
17 -19 263 0 249 1 262 22 302 29 53 84 98 139 112 23 6 99 11 168 11 l124 0
12 34 c15 46 73 104 134 132 45 21 66 24 171 24 112 0 124 -2 182 -29z m-1260
-1071 c21 -38 40 -70 43 -70 3 0 23 32 44 70 l37 70 45 0 44 0 0 -170 0 -170
-40 0 -39 0 -3 96 -3 96 -30 -54 c-24 -41 -36 -53 -55 -53 -19 0 -31 12 -55
53 l-30 54 -3 -96 -3 -96 -39 0 -40 0 0 170 0 170 44 0 45 0 38 -70z m433 46
c0 -18 -6 -25 -22 -28 -22 -3 -23 -6 -23 -118 0 -112 1 -115 23 -118 16 -3 22
-10 22 -28 0 -24 -2 -24 -85 -24 -83 0 -85 0 -85 24 0 18 6 25 23 28 21 3 22
6 22 118 0 112 -1 115 -22 118 -17 3 -23 10 -23 28 0 24 2 24 85 24 83 0 85 0
85 -24z m130 -116 l0 -140 70 0 c60 0 70 -3 71 -17 0 -14 3 -12 10 5 8 20 14
23 39 17 54 -12 60 2 60 146 l0 129 41 0 40 0 -3 -146 c-3 -145 -3 -146 -31
-169 -26 -23 -33 -24 -202 -24 l-175 -1 0 170 0 170 40 0 40 0 0 -140z m470
20 c0 -107 2 -122 20 -140 21 -21 32 -23 67 -14 32 9 43 53 43 170 l0 104 36
0 36 0 -4 -140 c-3 -137 -4 -140 -30 -167 -24 -23 -37 -28 -95 -31 -127 -6
-153 31 -153 226 l0 112 40 0 40 0 0 -120z m342 -17 l3 -138 68 -3 c67 -3 67
-3 67 -32 l0 -30 -105 0 -105 0 0 170 0 170 35 0 34 0 3 -137z m250 76 l3 -62
48 62 c47 59 50 61 94 61 l45 0 -54 -62 c-30 -35 -58 -69 -62 -75 -7 -13 107
-193 122 -193 5 0 32 74 61 165 l52 165 49 0 49 0 41 -130 c22 -71 47 -147 55
-170 l14 -40 -39 0 c-35 0 -39 3 -50 35 l-12 36 -61 -3 c-59 -3 -61 -4 -69
-35 l-9 -33 -87 0 -87 0 -40 65 c-22 35 -44 63 -50 61 -5 -1 -11 -30 -13 -64
l-3 -62 -34 0 -35 0 0 170 0 170 35 0 34 0 3 -61z m780 33 c18 -17 23 -34 23
-73 0 -44 -4 -54 -31 -79 l-32 -28 39 -58 c21 -33 39 -62 39 -66 0 -5 -17 -8
-39 -8 -37 0 -41 3 -81 65 -23 36 -49 65 -56 65 -11 0 -14 -16 -14 -65 l0 -65
-35 0 -35 0 0 171 0 171 100 -4 c88 -3 102 -6 122 -26z m-1962 -422 c0 -5 -16
-10 -35 -10 -28 0 -35 -4 -35 -20 0 -16 7 -20 30 -20 17 0 30 -4 30 -10 0 -5
-13 -10 -30 -10 -28 0 -30 -3 -30 -35 0 -19 -4 -35 -10 -35 -6 0 -10 32 -10
75 l0 75 45 0 c25 0 45 -4 45 -10z m131 -7 c8 -9 14 -35 14 -58 0 -23 -6 -49
-14 -58 -17 -22 -69 -22 -93 0 -23 21 -24 89 -1 115 20 23 76 24 94 1z m139
-2 c14 -27 13 -37 -6 -56 -15 -14 -15 -18 0 -40 19 -29 20 -35 3 -35 -7 0 -21
14 -30 30 -10 17 -22 30 -28 30 -5 0 -9 -13 -9 -30 0 -20 -5 -30 -15 -30 -12
0 -15 15 -15 75 l0 75 45 0 c34 0 47 -5 55 -19z m199 5 c16 -20 -3 -30 -27
-15 -40 25 -73 -22 -52 -76 7 -19 16 -26 32 -23 26 3 38 38 14 38 -9 0 -16 5
-16 10 0 6 14 10 30 10 27 0 30 -3 30 -34 0 -22 -6 -36 -16 -40 -29 -11 -67
-6 -86 11 -23 21 -24 89 -1 115 19 22 76 24 92 4z m145 -2 c10 -9 16 -33 16
-59 0 -51 -19 -75 -60 -75 -41 0 -60 24 -60 75 0 51 19 75 60 75 16 0 36 -7
44 -16z m148 -1 c23 -21 24 -89 1 -115 -20 -22 -76 -24 -93 -2 -8 8 -13 35
-13 59 0 24 5 51 13 59 17 21 69 20 92 -1z m142 -5 c9 -12 16 -36 16 -53 0
-51 -24 -75 -76 -75 l-44 0 0 75 0 75 44 0 c35 0 48 -5 60 -22z m163 -30 l28
-52 3 52 c5 80 22 62 22 -23 0 -94 -17 -99 -59 -17 l-30 57 -1 -57 c0 -32 -4
-58 -10 -58 -6 0 -10 32 -10 75 0 92 16 99 57 23z m183 42 c0 -5 -16 -10 -35
-10 -28 0 -35 -4 -35 -20 0 -16 7 -20 30 -20 17 0 30 -4 30 -10 0 -5 -13 -10
-30 -10 -25 0 -30 -4 -30 -25 0 -22 4 -25 35 -25 19 0 35 -4 35 -10 0 -5 -22
-10 -50 -10 l-50 0 0 75 0 75 50 0 c28 0 50 -4 50 -10z m120 0 c0 -5 -16 -10
-35 -10 -28 0 -35 -4 -35 -20 0 -16 7 -20 30 -20 17 0 30 -4 30 -10 0 -5 -13
-10 -30 -10 -25 0 -30 -4 -30 -25 0 -22 4 -25 35 -25 19 0 35 -4 35 -10 0 -5
-20 -10 -45 -10 l-45 0 0 75 0 75 45 0 c25 0 45 -4 45 -10z m124 -6 c10 -9 16
-33 16 -59 0 -55 -19 -75 -71 -75 l-39 0 0 75 0 75 39 0 c23 0 46 -7 55 -16z"/>
<path d="M2269 3337 c-90 -60 -89 -184 1 -245 29 -20 44 -23 88 -20 45 4 59
10 90 42 35 34 37 40 37 100 0 55 -4 68 -25 91 -55 59 -131 72 -191 32z"/>
<path d="M1833 3160 c-65 -40 -87 -111 -55 -183 24 -54 57 -78 116 -84 88 -10
158 53 158 142 0 26 -8 59 -19 77 -37 63 -136 88 -200 48z"/>
<path d="M2730 3173 c-8 -3 -26 -15 -38 -27 -128 -115 5 -315 158 -238 102 51
106 192 8 252 -32 19 -94 25 -128 13z"/>
<path d="M2070 2492 c0 -197 1 -211 21 -236 25 -32 75 -35 110 -7 23 18 24 26
27 153 2 77 -1 148 -7 169 -19 63 -60 102 -128 123 l-23 7 0 -209z"/>
<path d="M2564 2681 c-78 -36 -104 -100 -104 -262 0 -114 11 -164 40 -179 32
-17 75 -11 98 13 21 22 22 31 22 235 0 117 -3 212 -7 212 -5 0 -26 -9 -49 -19z"/>
<path d="M3232 1777 c-7 -24 -14 -52 -18 -61 -5 -13 1 -16 34 -16 l41 0 -15
53 c-21 71 -29 76 -42 24z"/>
<path d="M3520 1805 c0 -44 1 -45 31 -45 42 0 69 17 69 43 0 33 -19 47 -62 47
l-38 0 0 -45z"/>
<path d="M1767 1443 c-4 -3 -7 -26 -7 -50 0 -47 19 -65 49 -46 20 12 27 69 10
89 -12 15 -41 19 -52 7z"/>
<path d="M1910 1425 c0 -22 4 -26 23 -23 14 2 22 10 22 23 0 13 -8 21 -22 23
-19 3 -23 -1 -23 -23z"/>
<path d="M2248 1425 c-17 -37 0 -80 31 -80 30 0 46 40 32 78 -14 35 -47 36
-63 2z"/>
<path d="M2402 1438 c-17 -17 -15 -73 3 -88 8 -6 22 -10 32 -8 14 3 18 13 18
53 0 42 -3 50 -20 53 -11 1 -26 -3 -33 -10z"/>
<path d="M2540 1395 c0 -46 3 -55 18 -55 27 0 42 20 42 55 0 35 -15 55 -42 55
-15 0 -18 -9 -18 -55z"/>
<path d="M3140 1394 c0 -51 2 -55 22 -52 45 7 44 108 -2 108 -18 0 -20 -6 -20
-56z"/>
</g>
</svg>
